<?xml version="1.0" encoding="UTF-8" standalone="no"?>
<!-- Created with Inkscape (http://www.inkscape.org/) -->

<svg
        width="208.93805mm"
        height="243.36171mm"
        viewBox="0 0 208.93805 243.36171"
        version="1.1"
        id="svg1"
        xml:space="preserve"
        xmlns:xlink="http://www.w3.org/1999/xlink"
        xmlns="http://www.w3.org/2000/svg"
>
    <defs
            id="defs1">
        <linearGradient
                id="linearGradient16">
            <stop
                    style="stop-color:#ffffff;stop-opacity:0;"
                    offset="0"
                    id="stop17"/>
            <stop
                    style="stop-color:#ffffff;stop-opacity:0.49803922;"
                    offset="0.33754304"
                    id="stop20"/>
            <stop
                    style="stop-color:#ffffff;stop-opacity:1;"
                    offset="1"
                    id="stop16"/>
        </linearGradient>
        <linearGradient
                id="linearGradient9">
            <stop
                    style="stop-color:#cc3333;stop-opacity:1;"
                    offset="0.02902377"
                    id="stop11"/>
            <stop
                    style="stop-color:#ff9201;stop-opacity:1;"
                    offset="0.22"
                    id="stop12"/>
            <stop
                    style="stop-color:#eff807;stop-opacity:1;"
                    offset="0.41052866"
                    id="stop13"/>
            <stop
                    style="stop-color:#00d310;stop-opacity:1;"
                    offset="0.55347925"
                    id="stop14"/>
            <stop
                    style="stop-color:#007bfe;stop-opacity:1;"
                    offset="0.6825096"
                    id="stop15"/>
            <stop
                    style="stop-color:#8a1fe0;stop-opacity:1;"
                    offset="0.8378492"
                    id="stop10"/>
        </linearGradient>
        <linearGradient
                xlink:href="#linearGradient9"
                id="linearGradient10"
                x1="1.3027289"
                y1="142.3074"
                x2="208.12202"
                y2="141.63147"
                gradientUnits="userSpaceOnUse"
                spreadMethod="pad"/>
        <filter
                style="color-interpolation-filters:sRGB"
                id="filter15"
                x="-0.0076717382"
                y="-0.0065865662"
                width="1.0153435"
                height="1.0131731">
            <feGaussianBlur
                    stdDeviation="0.66788251"
                    id="feGaussianBlur15"/>
        </filter>
        <mask
                maskUnits="userSpaceOnUse"
                id="mask20">
            <path
                    style="mix-blend-mode:screen;fill:url(#radialGradient21);fill-rule:nonzero;stroke-width:0.527153"
                    id="path20"
                    d="M 197.10871,260.4031 A 122.68381,165.51123 0 0 1 23.693823,267.75731 122.68381,165.51123 0 0 1 18.241468,33.805441 122.68381,165.51123 0 0 1 191.65629,26.448239 122.68381,165.51123 0 0 1 197.11086,260.40001 L 107.67563,147.1035 Z"/>
        </mask>
        <radialGradient
                xlink:href="#linearGradient16"
                id="radialGradient21"
                gradientUnits="userSpaceOnUse"
                gradientTransform="matrix(1.5276197,0,0,2.0608933,-53.361986,-123.28639)"
                cx="105.41734"
                cy="131.20033"
                fx="105.41734"
                fy="131.20033"
                r="80.310432"/>
    </defs>
    <g
            id="layer1"
            transform="translate(1.0089792,-32.172862)">
        <g
       id="layer1-5"
       transform="translate(-1.3183637,5.5633572)"><rect
         style="opacity:1;mix-blend-mode:normal;fill:url(#linearGradient10);fill-rule:nonzero;stroke-width:0.280036;stroke-dasharray:none;filter:url(#filter15)"
         id="rect1"
         width="208.93805"
         height="243.36171"
         x="1.3027289"
         y="20.626551"
         ry="80.372536"
         transform="matrix(0.99409969,0,0,0.90762004,0.6078024,9.3432761)"
         mask="url(#mask20)" /><path
            d="m 86.141226,68.291264 c -3.593433,0.02573 -7.411598,0.48736 -11.397837,1.531308 -8.536285,2.305922 -17.351104,7.218694 -24.966692,15.235428 -6.697168,6.979864 -12.423056,16.31077 -15.739874,27.70388 -2.965269,10.48184 -3.68646,21.97325 -1.710048,33.41296 1.803423,10.75739 5.981902,21.38243 12.697103,30.61721 3.322884,4.48762 7.131303,8.47273 11.338976,11.86597 4.089551,3.29799 8.472488,5.96905 13.026111,7.9975 9.550326,4.3251 19.774135,5.7788 29.709589,4.45633 8.129796,-1.26869 14.891246,-3.77898 20.300616,-6.07691 6.02119,-2.36996 10.39007,-4.41395 14.47408,-5.32663 4.26308,-0.81061 7.6864,-1.31495 10.09857,-0.41025 1.31288,0.38295 2.49448,0.86753 3.33521,1.49909 0.88711,0.6503 1.70977,1.43873 2.1605,2.19135 0.63358,0.87773 0.99055,2.37877 0.9876,3.66995 0.0234,1.54051 -0.61545,3.34509 -1.48762,4.68074 -1.12081,1.76203 -3.00671,3.07461 -4.74723,3.79434 -4.08578,1.72335 -8.22574,0.59299 -9.66426,2.41768 -0.76832,0.97456 -1.02994,7.97953 8.48208,11.3523 3.84159,1.34644 9.02631,1.64985 14.5825,-1.04689 4.34675,-2.1344 8.68478,-6.04645 11.5992,-12.07672 2.48247,-5.19556 3.74765,-11.61255 2.80423,-18.56633 -0.75225,-5.12147 -2.5595,-10.09107 -5.42506,-14.40417 0.07,-0.0839 0.14777,-0.16123 0.21686,-0.24588 3.83494,-4.69634 5.75326,-9.91763 6.00188,-14.97931 0.32628,-9.69797 -5.39408,-16.52973 -10.6822,-19.73078 -3.09701,-1.87469 -5.9164,-2.58238 -8.17355,-2.52843 -1.75555,0.0418 -3.17095,0.54458 -4.11279,1.31763 -2.18197,1.79091 -2.37338,5.08397 -2.70136,8.28822 -0.33617,3.28416 -0.81905,7.08375 -2.36247,10.05664 -0.37593,0.80432 -0.85453,1.63655 -1.40336,2.47332 -4.45149,-0.96054 -8.94897,-1.18792 -13.31855,-0.64055 -7.51954,0.80272 -14.05711,2.66943 -20.028,4.54171 -5.47046,1.55 -10.400877,3.11754 -14.258454,3.23919 -4.438883,0.34098 -9.30871,-0.65639 -13.855721,-2.78161 -2.153251,-1.04027 -4.241655,-2.34217 -6.161135,-3.87142 -1.975052,-1.57355 -3.736034,-3.3601 -5.195202,-5.30516 -3.045857,-3.89608 -5.221849,-8.96207 -6.425683,-14.11682 -1.229179,-5.51787 -1.38038,-11.20886 -0.428126,-16.22767 0.951571,-5.49471 3.364428,-10.82887 6.373639,-15.24179 3.474786,-5.00047 7.789414,-8.915951 12.192763,-11.410834 5.441367,-3.177514 11.530687,-4.418582 16.693412,-4.735853 11.698367,-0.655265 19.706907,2.897945 21.706467,-0.02291 1.36855,-1.999143 -1.77946,-13.42748 -18.69778,-19.770781 -4.483853,-1.700119 -9.849335,-2.867943 -15.838384,-2.825024 z"
            style="display:inline;fill:#ffffff;stroke-width:0.281484"
            id="path80"
            mask="none"/>
</g>
</g>
</svg>
