<?xml version="1.0" encoding="UTF-8" standalone="no"?>
<!-- Created with Inkscape (http://www.inkscape.org/) -->

<svg
        width="210mm"
        height="297mm"
        viewBox="0 0 210 297"
        version="1.1"
        id="svg1"
        xmlns="http://www.w3.org/2000/svg"
>
    <defs
            id="defs1"/>
    <g
            id="layer1">
        <path
                d="m 88.537342,49.192806 c -4.60717,0.03368 -9.50247,0.637918 -14.61326,2.004368 -10.94444,3.018281 -22.24599,9.448735 -32.009998,19.942044 -8.586494,9.136123 -15.927701,21.349589 -20.18022,36.262312 -3.801795,13.71996 -4.72644,28.76135 -2.192466,43.73509 2.312183,14.08062 7.669445,27.98801 16.279059,40.07565 4.260297,5.87397 9.1431,11.09017 14.537792,15.53168 5.243247,4.31683 10.862646,7.81304 16.700883,10.46813 12.24455,5.66123 25.35258,7.56402 38.090908,5.833 10.42328,-1.66061 19.09218,-4.9464 26.02758,-7.95422 7.71982,-3.1021 13.32119,-5.77753 18.55733,-6.97216 5.46574,-1.06103 9.8548,-1.72118 12.94746,-0.53698 1.68326,0.50125 3.1982,1.13552 4.2761,1.96219 1.13737,0.85119 2.19211,1.88319 2.77,2.86831 0.81232,1.14889 1.26999,3.11364 1.26621,4.80369 0.0301,2.01641 -0.78907,4.37849 -1.90729,6.12674 -1.437,2.30638 -3.85493,4.02444 -6.08647,4.96651 -5.2384,2.25575 -10.54627,0.77619 -12.39062,3.16457 -0.98507,1.27563 -1.32049,10.44461 10.87495,14.85932 4.92533,1.76239 11.5727,2.15952 18.69634,-1.3703 5.573,-2.79377 11.13482,-7.91436 14.87143,-15.80753 3.18279,-6.80061 4.80488,-15.19997 3.59533,-24.30195 -0.96447,-6.70362 -3.28157,-13.20846 -6.95552,-18.854 0.0898,-0.10983 0.18946,-0.21102 0.27804,-0.32182 4.9168,-6.14717 7.37629,-12.98144 7.69506,-19.60682 0.41832,-12.69392 -6.9158,-21.63619 -13.69573,-25.82612 -3.97071,-2.45383 -7.58547,-3.38015 -10.47938,-3.30952 -2.25081,0.0548 -4.0655,0.71281 -5.27304,1.72468 -2.79753,2.34417 -3.04293,6.65454 -3.46344,10.84866 -0.43101,4.29872 -1.05011,9.27211 -3.02895,13.16339 -0.48198,1.0528 -1.09559,2.14212 -1.79925,3.23739 -5.70729,-1.25727 -11.47355,-1.55489 -17.07583,-0.83843 -9.64086,1.0507 -18.02273,3.49409 -25.67806,5.94476 -7.01372,2.02884 -13.33504,4.08063 -18.28087,4.23987 -5.691128,0.44631 -11.934778,-0.85918 -17.764538,-3.64093 -2.7607,-1.36164 -5.43826,-3.06572 -7.89924,-5.0674 -2.53223,-2.05965 -4.79,-4.39812 -6.66081,-6.94406 -3.90512,-5.09968 -6.694976,-11.73067 -8.238422,-18.47787 -1.57594,-7.22249 -1.769796,-14.67156 -0.548902,-21.24081 1.220016,-7.19217 4.31356,-14.17419 8.171694,-19.95037 4.45505,-6.545242 9.98687,-11.670321 15.63244,-14.935936 6.97642,-4.159129 14.78359,-5.783595 21.402758,-6.19888 14.99857,-0.857693 25.26639,3.793195 27.83004,-0.02998 1.75463,-2.61673 -2.28146,-17.575575 -23.97257,-25.878484 -5.74879,-2.22533 -12.627918,-3.753923 -20.306528,-3.697747 z"
                style="fill:#ffffff;stroke-width:0.364647"
                id="path80"/>
    </g>
</svg>
